<svg version="1.2" baseProfile="tiny-ps"
     height="100%">
    <title>.xyop</title>
    <style>tspan { white-space:pre }.shp0 { fill: #000000 }</style>
    <g>
        <path fill-rule="evenodd" class="shp0"
              d="M4844.05 214.27C5022.62 384.5 5046.43 639.24 4911.9 922.56C4857.14 1038.03 4729.76 1229.68 4651.19 1316.58C4470.24 1514.19 4215.48 1649.89 3936.9 1697.51C3876.19 1708.22 3823.81 1720.13 3819.05 1723.7C3797.62 1745.13 3748.81 1976.06 3748.81 2059.39C3747.62 2160.58 3765.48 2216.52 3814.29 2260.57C3858.33 2301.04 3854.76 2321.28 3803.57 2321.28C3716.67 2321.28 3614.29 2240.33 3582.14 2146.29C3564.29 2096.29 3559.52 1849.88 3575 1764.17L3583.33 1714.18L3545.24 1714.18C3473.81 1714.18 3280.95 1679.65 3172.62 1648.7C3025 1605.85 2910.71 1548.71 2803.57 1464.19C2745.24 1416.58 2711.9 1397.53 2708.33 1407.05C2704.76 1415.39 2672.62 1510.62 2636.9 1618.94C2539.29 1905.83 2496.43 1968.92 2413.1 1941.54C2385.71 1932.02 2364.29 1912.97 2345.24 1878.45C2319.05 1832.03 2317.86 1822.5 2326.19 1678.46C2333.33 1543.95 2364.29 1293.96 2388.1 1179.69C2396.43 1141.59 2395.24 1139.21 2367.86 1146.36C2352.38 1151.12 2309.52 1154.69 2272.62 1154.69L2205.95 1154.69L2204.76 1258.25C2203.57 1316.58 2197.62 1392.77 2190.48 1428.48C2153.57 1621.32 2002.38 1797.5 1875 1797.5C1820.24 1797.5 1754.76 1770.12 1726.19 1735.6C1642.86 1635.61 1645.24 1393.96 1730.95 1198.73L1750 1154.69L1633.33 1154.69L1547.62 1267.78L1460.71 1380.86L1475 1472.52C1510.71 1701.08 1564.29 1870.12 1634.52 1977.25C1653.57 2007.01 1654.76 2010.59 1636.9 2028.44C1610.71 2053.44 1561.9 2052.25 1517.86 2024.87C1471.43 1996.3 1404.76 1883.21 1355.95 1747.51L1316.67 1637.99L1295.24 1690.37C1261.9 1768.93 1227.38 1911.78 1217.86 2016.54C1207.14 2118.91 1192.86 2140.34 1140.48 2127.24C1125 2122.48 1096.43 2105.82 1079.76 2090.34C1052.38 2064.15 1047.62 2051.06 1047.62 1991.54C1047.62 1930.83 1069.05 1853.45 1114.29 1743.94C1119.05 1730.84 1091.67 1757.03 1051.19 1803.46C979.76 1886.78 879.76 1985.59 845.24 2007.01C834.52 2012.97 801.19 2086.77 769.05 2172.48C604.76 2614.12 425 2891.48 270.24 2943.86C89.29 3004.57 -38.1 2831.96 33.33 2623.64C91.67 2455.8 279.76 2242.71 496.43 2098.68L630.95 2009.4L659.52 1911.78C738.1 1651.08 739.29 1640.37 695.24 1708.22C628.57 1808.22 566.67 1857.02 507.14 1857.02C466.67 1857.02 411.9 1807.03 385.71 1747.51C354.76 1671.32 348.81 1413 375 1238.02C397.62 1079.69 422.62 965.41 438.1 949.94C442.86 945.18 483.33 936.84 525 933.27C611.9 924.94 654.76 939.23 654.76 976.13C654.76 989.22 634.52 1070.17 608.33 1157.07C546.43 1370.15 522.62 1490.38 520.24 1611.8C517.86 1746.32 530.95 1758.22 591.67 1680.84C617.86 1648.7 660.71 1579.66 686.9 1528.47C751.19 1403.48 885.71 1084.45 932.14 943.99C972.62 819 983.33 809.47 1076.19 809.47C1172.62 809.47 1216.67 878.52 1173.81 961.84C1132.14 1043.98 884.52 1809.41 900 1809.41C922.62 1809.41 1117.86 1557.04 1192.86 1429.67L1252.38 1329.68L1232.14 1164.21C1221.43 1072.55 1215.48 990.41 1219.05 982.08C1234.52 941.61 1375 893.99 1415.48 916.61C1438.1 928.51 1440.48 940.42 1440.48 1053.5C1440.48 1121.36 1445.24 1179.69 1450 1183.26C1454.76 1186.83 1484.52 1154.69 1515.48 1113.02C1575 1029.7 1570.24 1032.08 1727.38 1014.22C1785.71 1007.08 1857.14 989.22 1896.43 971.37C2030.95 911.85 2115.48 918.99 2151.19 992.79C2170.24 1033.27 2172.62 1034.46 2225 1028.51C2370.24 1013.03 2432.14 996.36 2436.9 974.94C2440.48 960.65 2461.9 947.56 2492.86 939.23C2550 923.75 2559.52 913.04 2559.52 855.9C2559.52 745.19 2641.67 523.78 2734.52 384.5C2800 285.7 2910.71 171.42 2994.05 117.85C3033.33 91.66 3050 83.33 3029.76 97.61C2958.33 152.37 2841.67 270.22 2788.1 339.26C2680.95 480.92 2597.62 690.43 2579.76 865.42C2572.62 922.56 2575 928.51 2596.43 928.51C2634.52 928.51 2666.67 951.13 2666.67 978.51C2666.67 991.6 2655.95 1040.41 2641.67 1086.84C2621.43 1155.88 2619.05 1174.92 2630.95 1203.49C2639.29 1222.54 2650 1238.02 2653.57 1238.02C2658.33 1238.02 2671.43 1208.26 2683.33 1171.35C2719.05 1058.27 2784.52 915.42 2827.38 857.09C2850 826.14 2891.67 788.04 2921.43 772.57L2975 745.19L3030.95 767.81C3108.33 801.14 3134.52 840.42 3140.48 934.46C3146.43 1029.7 3110.71 1154.69 3058.33 1218.97C3013.1 1272.54 2946.43 1295.16 2898.81 1272.54C2842.86 1245.16 2835.71 1220.16 2866.67 1168.97C2938.1 1053.5 2953.57 1005.89 2950 914.23L2946.43 827.33L2895.24 930.89C2867.86 986.84 2817.86 1104.69 2785.71 1191.59C2715.48 1374.91 2714.29 1366.58 2834.52 1457.05C2932.14 1529.66 3077.38 1599.9 3196.43 1629.66C3319.05 1660.61 3494.05 1690.37 3548.81 1690.37C3588.1 1690.37 3592.86 1686.8 3600 1652.28C3604.76 1626.09 3602.38 1611.8 3594.05 1608.23C3585.71 1605.85 3538.1 1583.23 3486.9 1557.04C3383.33 1505.86 3310.71 1439.19 3251.19 1340.39C3205.95 1264.2 3208.33 1233.25 3258.33 1245.16C3344.05 1263.01 3372.62 1280.87 3445.24 1351.1C3523.81 1426.1 3617.86 1483.24 3646.43 1472.52C3654.76 1468.95 3678.57 1424.91 3698.81 1373.72C3808.33 1095.17 4146.43 402.36 4195.24 358.31L4226.19 329.74L4273.81 351.17C4328.57 376.17 4389.29 438.07 4400 480.92C4404.76 502.35 4384.52 551.16 4317.86 674.96C4154.76 978.51 4085.71 1111.83 4001.19 1292.77C3954.76 1392.77 3916.67 1476.1 3916.67 1479.67C3916.67 1490.38 4041.67 1461.81 4113.1 1434.43C4439.29 1311.82 4770.24 892.8 4819.05 540.44C4841.67 378.55 4811.9 295.22 4710.71 245.22C4651.19 215.46 4625 210.7 4508.33 204.75C4348.81 198.8 4225 219.03 4065.48 282.12C3713.1 420.21 3432.14 646.39 3392.86 824.95C3373.81 909.47 3389.29 946.37 3454.76 976.13C3490.48 991.6 3533.33 999.94 3591.67 999.94C3664.29 999.94 3682.14 1004.7 3711.9 1029.7C3730.95 1045.17 3753.57 1076.12 3763.1 1096.36C3777.38 1132.07 3776.19 1135.64 3748.81 1158.26C3723.81 1178.5 3707.14 1180.88 3619.05 1176.12C3389.29 1163.02 3240.48 1020.17 3252.38 823.76C3259.52 696.38 3322.62 582.11 3464.29 439.26C3526.19 376.17 3609.52 304.74 3648.81 279.74C3842.86 157.13 4122.62 60.71 4339.29 45.24C4544.05 29.76 4708.33 84.52 4844.05 214.27ZM2082.14 1095.17C2065.48 1095.17 1976.19 1228.49 1934.52 1315.39C1878.57 1432.05 1853.57 1538 1860.71 1623.71C1864.29 1661.8 1872.62 1698.7 1878.57 1704.65C1892.86 1718.94 1958.33 1664.18 1992.86 1608.23C2061.9 1499.9 2113.1 1288.01 2100 1170.16C2096.43 1128.5 2088.1 1095.17 2082.14 1095.17ZM2607.14 1226.11C2590.48 1226.11 2530.95 1478.48 2519.05 1601.09C2513.1 1666.56 2517.86 1655.85 2577.38 1482.05C2634.52 1316.58 2641.67 1286.82 2629.76 1258.25C2622.62 1240.4 2611.9 1226.11 2607.14 1226.11ZM4416.67 1465.38C4271.43 1552.28 4050 1618.94 3902.38 1618.94C3864.29 1618.94 3854.76 1623.71 3844.05 1649.89C3838.1 1667.75 3835.71 1684.42 3838.1 1687.99C3853.57 1702.27 4111.9 1636.8 4214.29 1592.76C4319.05 1546.33 4478.57 1452.29 4495.24 1427.29C4503.57 1413 4504.76 1413 4416.67 1465.38ZM579.76 2182C565.48 2167.72 338.1 2373.66 276.19 2458.18C198.81 2561.74 130.95 2710.54 130.95 2778.39C130.95 2837.91 150 2856.96 209.52 2856.96C294.05 2856.96 429.76 2636.74 534.52 2328.42C561.9 2251.05 582.14 2184.38 579.76 2182Z"/>
        <path class="shp0"
              d="M187.52 1814.36C225.62 1851.26 228 1927.45 193.48 1984.59C130.38 2088.15 14.9 2052.44 14.9 1928.64C14.9 1877.45 20.86 1863.17 55.38 1827.45C103 1776.27 145.86 1771.51 187.52 1814.36Z"/>
    </g>
</svg>